<?xml version="1.0" encoding="UTF-8"?>
<svg version="1.1" viewBox="0 0 1600 1600" width="1280" height="1280" xmlns="http://www.w3.org/2000/svg">
<path transform="translate(826 107)" d="m0 0c9.58 7.03 17.9 16 26.3 24.4 1.12 1.11 2.23 2.23 3.35 3.34 3.05 3.04 6.09 6.08 9.13 9.12 3.32 3.32 6.64 6.63 9.96 9.95 6.58 6.57 13.2 13.1 19.7 19.7 7.88 7.87 15.8 15.7 23.6 23.6 19.9 19.9 39.9 39.8 59.8 59.8 5.4 5.4 10.8 10.8 16.2 16.2 33.1 33 66.1 66.1 99.2 99.1 7.76 7.75 15.5 15.5 23.3 23.3 0.974 0.973 1.95 1.95 2.92 2.92 31.3 31.3 62.6 62.5 93.9 93.8 32.7 32.6 65.3 65.3 98 97.9 4.54 4.54 9.08 9.08 13.6 13.6 0.894 0.894 1.79 1.79 2.71 2.71 14.4 14.4 28.8 28.8 43.2 43.1 14.5 14.4 28.9 28.9 43.4 43.3 8.58 8.59 17.2 17.2 25.8 25.7 5.75 5.73 11.5 11.5 17.2 17.2 3.26 3.27 6.53 6.54 9.81 9.79 2.99 2.97 5.96 5.95 8.93 8.94 1.06 1.07 2.13 2.13 3.21 3.19 11.5 11.3 20.3 24.5 20.9 41.1-0.429 13.8-4.93 26.1-14.4 36.3-10.6 9.89-22.6 14-36.8 15.2-11.8-0.409-21.5-4.9-31.1-11.3v-2c-0.589-0.264-1.18-0.528-1.78-0.8-2.31-1.25-3.82-2.56-5.68-4.41-0.67-0.665-1.34-1.33-2.03-2.01-0.728-0.732-1.46-1.46-2.2-2.22-0.779-0.776-1.56-1.55-2.36-2.35-2.62-2.61-5.23-5.23-7.84-7.84-1.87-1.87-3.74-3.74-5.62-5.61-4.56-4.55-9.12-9.11-13.7-13.7-3.7-3.7-7.4-7.41-11.1-11.1-0.79-0.79-0.79-0.79-1.6-1.6-1.07-1.07-2.14-2.14-3.21-3.21-10-10-20.1-20.1-30.1-30.1-8.61-8.62-17.2-17.2-25.8-25.8-10-9.99-20-20-30-30-1.06-1.07-2.13-2.13-3.19-3.2-0.524-0.524-1.05-1.05-1.59-1.59-3.7-3.7-7.4-7.4-11.1-11.1-4.51-4.5-9.01-9.01-13.5-13.5-2.3-2.3-4.6-4.6-6.9-6.9-2.49-2.49-4.98-4.98-7.46-7.47-0.737-0.732-1.47-1.46-2.23-2.22-0.659-0.665-1.32-1.33-2-2.01-0.575-0.575-1.15-1.15-1.74-1.74-1.21-1.46-1.21-1.46-1.21-3.46-0.99-0.33-1.98-0.66-3-1v-2c-0.99-0.33-1.98-0.66-3-1-1.69-1.98-3.35-3.98-5-6-0.99-0.66-1.98-1.32-3-2v-2c-0.99-0.33-1.98-0.66-3-1-2.19-1.94-2.19-1.94-4-4v-2c-0.99-0.33-1.98-0.66-3-1-1.22-1.45-2.43-2.9-3.61-4.39-2.18-2.53-4.83-4.49-7.39-6.61-1.33-1.67-2.67-3.33-4-5-0.969-0.804-1.94-1.61-2.94-2.44-3.13-2.62-5.46-5.44-8.06-8.56-0.99-0.825-1.98-1.65-3-2.5-3.11-2.59-5.42-5.4-8-8.5-0.99-0.825-1.98-1.65-3-2.5-3.1-2.59-5.43-5.4-8-8.5-1.24-0.99-1.24-0.99-2.5-2-2.5-2-2.5-2-4.94-4.94-2.47-3.14-2.47-3.14-5.56-5.56-3.11-2.59-5.42-5.4-8-8.5-0.99-0.825-1.98-1.65-3-2.5-3.11-2.59-5.42-5.4-8-8.5-0.99-0.825-1.98-1.65-3-2.5-3.1-2.59-5.43-5.4-8-8.5-0.825-0.66-1.65-1.32-2.5-2-2.5-2-2.5-2-4.94-4.94-2.47-3.14-2.47-3.14-5.56-5.56-3.11-2.59-5.42-5.4-8-8.5-0.99-0.825-1.98-1.65-3-2.5-3.1-2.59-5.43-5.4-8-8.5-0.784-0.619-1.57-1.24-2.38-1.88-3.03-2.46-5.4-5.22-7.93-8.17-2.99-3.46-6.14-6.51-9.69-9.39-3.07-2.63-5.42-5.46-8-8.56-0.99-0.825-1.98-1.65-3-2.5-3.11-2.59-5.42-5.4-8-8.5-0.99-0.825-1.98-1.65-3-2.5-3.1-2.59-5.43-5.4-8-8.5-0.784-0.619-1.57-1.24-2.38-1.88-3.03-2.46-5.4-5.22-7.93-8.17-2.99-3.46-6.14-6.51-9.69-9.39-3.07-2.63-5.42-5.46-8-8.56-0.99-0.825-1.98-1.65-3-2.5-3.11-2.59-5.42-5.4-8-8.5-0.99-0.825-1.98-1.65-3-2.5-3.11-2.59-5.45-5.36-8-8.5-1.65-1.68-3.32-3.34-5-5-1.07-1.06-2.13-2.13-3.2-3.2-0.586-0.586-1.17-1.17-1.77-1.77-52.7-52.7-105-105-158-158-0.803-0.799-0.803-0.799-1.62-1.61-1.26-1.27-2.5-2.57-3.73-3.87-1.62-1.82-1.62-1.82-4.04-1.76-4.06 1.77-6.66 4.68-9.69 7.86-0.905 0.919-0.905 0.919-1.83 1.86-2.76 2.83-5.41 5.69-7.92 8.75-2.49 2.98-5.27 5.23-8.25 7.7-0.639 0.804-1.28 1.61-1.94 2.44-2.23 2.77-4.67 4.83-7.4 7.09-2.18 1.94-3.85 4.19-5.66 6.47-1.45 1.21-1.45 1.21-2.94 2.44-3.14 2.47-3.14 2.47-5.56 5.56-2.59 3.11-5.4 5.42-8.5 8-0.825 0.99-1.65 1.98-2.5 3-2.59 3.1-5.4 5.43-8.5 8-0.66 0.825-1.32 1.65-2 2.5-2 2.5-2 2.5-4.94 4.94-3.14 2.47-3.14 2.47-5.56 5.56-2.59 3.11-5.4 5.42-8.5 8-1.67 2-3.34 4-5 6-1.67 1.33-3.33 2.67-5 4-1.21 1.47-2.42 2.94-3.61 4.43-2.04 2.31-4.39 4.18-6.76 6.14-2.17 1.92-3.82 4.17-5.62 6.44-1.45 1.21-1.45 1.21-2.94 2.44-3.14 2.47-3.14 2.47-5.56 5.56-2.59 3.11-5.4 5.42-8.5 8-0.825 0.99-1.65 1.98-2.5 3-2.59 3.1-5.4 5.43-8.5 8-0.66 0.825-1.32 1.65-2 2.5-2 2.5-2 2.5-4.94 4.94-3.14 2.47-3.14 2.47-5.56 5.56-1.89 2.26-3.44 3.88-5.69 5.69-2.94 2.19-2.94 2.19-4.81 5.31h-2c-0.33 0.99-0.66 1.98-1 3h-2c-0.66 1.32-1.32 2.64-2 4h-2c-0.33 0.99-0.66 1.98-1 3h-2c-0.217 0.541-0.433 1.08-0.656 1.64-1.81 3.18-4.26 5.57-6.84 8.11-0.499 0.507-0.998 1.01-1.51 1.54-3.73 3.71-3.73 3.71-5.99 3.71-0.33 0.99-0.66 1.98-1 3h-2c-0.66 1.32-1.32 2.64-2 4h-2c-0.33 0.99-0.66 1.98-1 3h-2c-0.217 0.541-0.433 1.08-0.656 1.64-1.81 3.18-4.26 5.57-6.84 8.11-0.499 0.507-0.998 1.01-1.51 1.54-3.73 3.71-3.73 3.71-5.99 3.71-0.349 0.836-0.349 0.836-0.705 1.69-1.63 2.91-3.66 4.93-6.01 7.3-0.932 0.935-1.86 1.87-2.82 2.83-0.485 0.481-0.97 0.962-1.47 1.46-1.49 1.48-2.97 2.97-4.44 4.46-0.932 0.929-1.86 1.86-2.82 2.82-0.857 0.854-1.71 1.71-2.6 2.59-2.12 1.86-2.12 1.86-4.12 1.86-0.207 0.532-0.414 1.06-0.627 1.61-1.93 3.36-4.6 5.9-7.34 8.61-0.621 0.624-1.24 1.25-1.88 1.89-2.09 2.1-4.2 4.2-6.3 6.29-1.51 1.52-3.03 3.03-4.54 4.55-4.17 4.18-8.34 8.35-12.5 12.5-4.5 4.49-8.99 9-13.5 13.5-8.81 8.82-17.6 17.6-26.4 26.4-7.16 7.16-14.3 14.3-21.5 21.5-1.03 1.03-2.06 2.06-3.09 3.09-1.55 1.55-3.1 3.1-4.65 4.65-14.4 14.4-28.8 28.8-43.3 43.3-0.544 0.544-1.09 1.09-1.65 1.65-2.76 2.76-5.51 5.51-8.27 8.27-0.548 0.547-1.1 1.09-1.66 1.66-1.11 1.11-2.21 2.21-3.32 3.32-17.2 17.2-34.4 34.4-51.6 51.7-19.3 19.4-38.7 38.7-58 58-2.06 2.06-4.13 4.13-6.19 6.19-0.762 0.762-0.762 0.762-1.54 1.54-7.67 7.66-15.3 15.3-23 23-8.72 8.73-17.4 17.4-26.2 26.2-4.45 4.45-8.9 8.9-13.3 13.4-4.07 4.08-8.15 8.15-12.2 12.2-1.47 1.47-2.95 2.94-4.41 4.42-14.1 14.1-27.3 25.4-48.3 25.6-13.8-0.671-26.3-6.07-36-16.1-9.65-11.6-13.9-25-12.8-39.9 1.72-10.9 5.48-19.5 13-27.6 0.484-0.522 0.968-1.04 1.47-1.58 5.23-5.6 10.6-11 16-16.4 1.12-1.12 2.24-2.24 3.35-3.36 3.05-3.06 6.11-6.11 9.16-9.17 3.33-3.33 6.66-6.67 9.99-10 6.59-6.6 13.2-13.2 19.8-19.8 7.9-7.91 15.8-15.8 23.7-23.7 19.1-19.1 38.2-38.2 57.3-57.3 9.03-9.04 18.1-18.1 27.1-27.1 30.4-30.5 60.9-60.9 91.3-91.4 2.42-2.42 4.85-4.85 7.27-7.27 0.481-0.481 0.962-0.962 1.46-1.46 4.87-4.87 9.74-9.75 14.6-14.6 0.977-0.977 1.95-1.95 2.93-2.93 31.4-31.4 62.8-62.8 94.1-94.2 33.7-33.7 67.3-67.4 101-101 3.64-3.64 7.28-7.29 10.9-10.9 0.897-0.897 1.79-1.79 2.72-2.72 14.4-14.4 28.9-28.9 43.3-43.3 14.5-14.5 29-29 43.5-43.5 8.62-8.62 17.2-17.2 25.8-25.9 5.75-5.76 11.5-11.5 17.3-17.3 3.28-3.28 6.56-6.56 9.84-9.85 2.98-2.99 5.97-5.98 8.96-8.96 1.07-1.07 2.14-2.14 3.21-3.22 17.8-18 44-27.5 67.1-12.3z" fill="#000002"/>
<path transform="translate(331,911)" d="m0 0c0.826 0.616 1.65 1.23 2.5 1.87 11.2 9.57 15 22.2 16.3 36.4 0.686 10.4 0.468 20.8 0.455 31.2-0.0025 3.84 0.00662 7.69 0.0144 11.5 0.012 6.65 0.0171 13.3 0.0179 19.9 0.00133 9.63 0.0165 19.3 0.0355 28.9 0.0308 15.6 0.055 31.3 0.0729 46.9 0.00161 1.4 0.00161 1.4 0.00325 2.83 0.0118 10.4 0.022 20.8 0.0304 31.3 0.00307 3.78 0.00616 7.56 0.00928 11.3 0.00115 1.4 0.00115 1.4 0.00232 2.83 0.0131 15.6 0.0378 31.2 0.0714 46.8 0.0202 9.6 0.0306 19.2 0.028 28.8-0.00104 6.58 0.00868 13.2 0.0266 19.7 0.00998 3.79 0.0152 7.57 0.00723 11.4-0.0515 21.8-0.0515 21.8 3.41 43.3 0.197 0.859 0.394 1.72 0.598 2.6 5.4 22 16.3 42.5 31.4 59.4 0.829 0.972 1.66 1.94 2.51 2.95 23.9 27.6 60.4 44.9 96.5 48.1 2.95 0.129 5.89 0.143 8.84 0.139 0.847 0.00284 1.69 0.00568 2.57 0.00861 2.83 0.0083 5.65 0.00961 8.48 0.0109 2.05 0.00457 4.1 0.00957 6.16 0.015 5.63 0.0136 11.3 0.021 16.9 0.0274 6.08 0.00802 12.2 0.0217 18.2 0.0347 10.6 0.0218 21.1 0.04 31.7 0.0556 11.1 0.0165 22.2 0.035 33.3 0.0561 1.04 0.00198 1.04 0.00198 2.1 0.00399 3.52 0.0067 7.04 0.0134 10.6 0.0202 25 0.0478 50 0.0909 74.9 0.131 24.1 0.0391 48.2 0.0805 72.3 0.125 0.737 0.00136 1.47 0.00273 2.23 0.00413 6.68 0.0123 13.4 0.0247 20 0.0371 26.6 0.0493 53.2 0.0969 79.8 0.144 2.07 0.00366 4.14 0.00733 6.22 0.011 37.9 0.067 75.8 0.13 114 0.176 1.48 0.00179 1.48 0.00179 2.98 0.00362 11.4 0.0136 22.7 0.0243 34.1 0.0291 2.92 0.00125 5.84 0.00328 8.76 0.00613 87.9 1.92 87.9 1.92 163-39.7 3.45-3.35 3.45-3.35 5.63-3.35 0.263-0.593 0.526-1.19 0.796-1.8 1.26-2.3 2.54-3.68 4.46-5.46 3.68-3.59 6.68-7.41 9.62-11.6 0.77-1.1 0.77-1.1 1.56-2.23 16.7-24.4 25.7-52.4 25.7-82 0.00282-1.31 0.00564-2.63 0.00855-3.98 0.00772-3.63 0.00937-7.26 0.0101-10.9 0.00185-3.92 0.00946-7.84 0.0165-11.8 0.0115-6.79 0.0198-13.6 0.0261-20.4 0.0103-10.7 0.0309-21.5 0.0531-32.2 0.00748-3.68 0.0149-7.35 0.0223-11 0.00185-0.919 0.0037-1.84 0.00561-2.78 0.0209-10.5 0.0397-20.9 0.0576-31.4 0.00164-0.955 0.00328-1.91 0.00496-2.89 0.0263-15.5 0.0449-30.9 0.0616-46.4 0.0174-15.9 0.0463-31.8 0.0849-47.7 0.0234-9.8 0.0374-19.6 0.0393-29.4 0.00211-6.72 0.0151-13.4 0.0365-20.2 0.012-3.87 0.0192-7.74 0.0133-11.6-0.00534-3.55 0.00332-7.11 0.0226-10.7 0.00666-1.88-0.0012-3.75-0.00978-5.63 0.0778-10.1 1.22-20.4 6.47-29.2 0.76-1.3 0.76-1.3 1.54-2.63 1.1-1.77 2.25-3.51 3.4-5.24h2c0.373-0.884 0.373-0.884 0.754-1.79 4.54-8.07 15.4-12.5 23.9-15 12.5-2.81 25.8-1.23 36.9 5.24 2.23 1.45 4.38 2.94 6.5 4.54 0.816 0.598 1.63 1.2 2.47 1.81 10.8 9.32 15.2 22.1 16.3 35.9 0.331 5.29 0.346 10.6 0.335 15.9 0.00234 1.81 0.00234 1.81 0.00473 3.65 0.00327 3.31 0.00213 6.62-9.86e-4 9.93-0.00228 3.59 0.00124 7.17 0.00398 10.8 0.00443 7.01 0.00349 14 5.87e-4 21-0.00227 5.71-0.00256 11.4-0.00148 17.1 2.3e-4 1.22 2.3e-4 1.22 4.64e-4 2.47 3.2e-4 1.66 6.44e-4 3.31 9.73e-4 4.97 0.00285 15.5-4.21e-4 31-0.0058 46.6-0.00446 13.3-0.0037 26.5 9.19e-4 39.8 0.00538 15.5 0.00744 30.9 0.00439 46.4-3.18e-4 1.65-6.33e-4 3.31-9.43e-4 4.96-1.54e-4 0.814-3.09e-4 1.63-4.68e-4 2.47-8.57e-4 5.69 5.8e-4 11.4 0.00295 17.1 0.00283 6.96 0.00199 13.9-0.00328 20.9-0.00259 3.54-0.00372 7.07-3.51e-4 10.6 0.0337 46.8 0.0337 46.8-2.82 64.4-0.175 1.11-0.35 2.22-0.531 3.37-7.74 47-28.4 89.4-59.8 125-0.438 0.501-0.876 1-1.33 1.52-16.7 19-36.1 34.4-57.7 47.5-0.68 0.418-1.36 0.837-2.06 1.27-46.9 28.5-99.3 33.9-153 33.8-2.56-0.00155-5.13-0.00266-7.69-0.00337-6.26-0.00256-12.5-0.0105-18.8-0.0203-7.51-0.0114-15-0.0169-22.5-0.0223-18.1-0.0133-36.3-0.037-54.4-0.0618-8.59-0.0117-17.2-0.022-25.8-0.0322-29.4-0.0349-58.9-0.0718-88.3-0.116-1.84-0.00278-3.69-0.00555-5.53-0.00833-1.85-0.00278-3.7-0.00557-5.55-0.00835-3.71-0.00559-7.42-0.0112-11.1-0.0167-0.919-0.00139-1.84-0.00277-2.79-0.0042-29.8-0.0449-59.6-0.0774-89.5-0.103-31.6-0.0267-63.2-0.0643-94.7-0.114-3.47-0.00544-6.94-0.0108-10.4-0.0162-0.854-0.00133-1.71-0.00265-2.59-0.00402-13.7-0.0211-27.4-0.0324-41.1-0.0402-13.8-0.00813-27.6-0.0274-41.4-0.0577-8.18-0.0176-16.4-0.0272-24.5-0.0248-6.13 9.07e-4 -12.3-0.0139-18.4-0.0345-2.46-0.00592-4.92-0.00693-7.39-0.00227-62.4 0.104-123-21.6-169-64.4-1.37-1.19-2.75-2.38-4.12-3.56-4.13-3.61-8.29-7.29-11.9-11.4v-2h-2c-2.76-2.97-5.22-6.19-7.72-9.38-1.23-1.56-2.47-3.1-3.71-4.65-24.9-31.5-41.8-69-48.8-109-0.151-0.848-0.302-1.7-0.458-2.57-3.18-19.3-3.59-38.5-3.57-58 0.0025-3.87-0.00659-7.75-0.014-11.6-0.0127-7.56-0.0146-15.1-0.0122-22.7 0.00179-6.15 1.46e-5 -12.3-0.00422-18.4-5.95e-4 -0.879-0.00119-1.76-0.0018-2.66-0.00121-1.79-0.00243-3.57-0.00364-5.36-0.0108-16.7-0.00873-33.4-0.00262-50.1 0.00518-15.2-0.00611-30.5-0.0251-45.7-0.0194-15.7-0.0276-31.4-0.0239-47.1 0.00191-8.8-5.39e-4 -17.6-0.0147-26.4-0.0119-7.48-0.0133-15-0.00121-22.4 0.00587-3.81 0.00704-7.62-5e-3 -11.4-0.0129-4.14-0.00235-8.28 0.0103-12.4-0.00737-1.19-0.0147-2.38-0.0223-3.61 0.0641-10 1.23-20.3 6.46-29.1 0.507-0.869 1.01-1.74 1.54-2.63 1.1-1.77 2.25-3.51 3.4-5.24h2c0.249-0.589 0.498-1.18 0.754-1.79 4.54-8.07 15.4-12.5 23.9-15 15.8-3.54 30.6 0.169 43.4 9.79z" fill="#000002"/>
</svg>
